<svg xmlns="http://www.w3.org/2000/svg" viewBox="0 0 197 166"><defs><style>.cls-1{fill:#fff;}.cls-2{fill:#7952b3;fill-rule:evenodd;}</style></defs><g id="Capa_2" data-name="Capa 2"><g id="Capa_1-2" data-name="Capa 1"><rect class="cls-1" x="48" y="27" width="113" height="119"/><path class="cls-2" d="M40.92,0C29.68,0,21.36,10.41,21.73,21.69c.36,10.85-.11,24.89-3.45,36.34S9.26,76.79,0,77.73V88.27c9.26.94,14.93,8.21,18.28,19.7s3.81,25.49,3.45,36.34c-.37,11.28,8,21.69,19.19,21.69H156.1c11.24,0,19.55-10.41,19.18-21.69-.36-10.85.11-24.89,3.45-36.34s9-18.76,18.27-19.7V77.73c-9.26-.94-14.92-8.21-18.27-19.7s-3.81-25.49-3.45-36.34C175.65,10.41,167.34,0,156.1,0Zm92.64,102.18c0,15.54-11,25-29.15,25H73.46a3.44,3.44,0,0,1-3.34-3.53h0V42.38a3.44,3.44,0,0,1,3.34-3.53h30.78c15.16,0,25.11,8.69,25.11,22,0,9.36-6.69,17.74-15.22,19.21v.49c11.61,1.35,19.43,9.86,19.43,21.6ZM101,50.05H83.39V76.42H98.25c11.5,0,17.83-4.89,17.83-13.64,0-8.2-5.44-12.73-15-12.73ZM83.39,86.89V116h18.3c12,0,18.3-5.08,18.3-14.62s-6.51-14.45-19.07-14.45H83.39Z"/></g></g></svg>