<svg xmlns="http://www.w3.org/2000/svg" viewBox="0 0 119.84 175.26"><defs><style>.cls-1{fill:#fff;}.cls-2{fill:#1572b6;}.cls-3{fill:#33a9dc;}.cls-4{fill:#ebebeb;}</style></defs><g id="Capa_2" data-name="Capa 2"><g id="Capa_1-2" data-name="Capa 1"><path class="cls-1" d="M93.91,6.49H84L94.31,18.12v5.53H73V17.17H83.34L73,5.54V0H93.91Zm-25.13,0h-10L69.17,18.12v5.53H47.87V17.17H58.21L47.87,5.54V0H68.78Zm-24.89.26H33.16V16.9H43.89v6.75H25.53V0H43.89Z"/><path class="cls-2" d="M10.91,161.19,0,34.45H119.84L108.92,161.17,59.84,175.26Z"/><path class="cls-3" d="M59.92,164.49,99.57,153.1l9.32-108.29h-49Z"/><path class="cls-1" d="M59.92,90.73H79.77l1.37-15.92H59.92V59.28H97.54l-.36,4.17-3.69,42.84H59.92Z"/><path class="cls-4" d="M60,131.1h-.07l-16.7-4.68L42.16,114h-15l2.1,24.4L60,147.29H60V131.1Z"/><path class="cls-1" d="M78.5,105.61l-1.81,20.8L60,131.08v16.2l30.75-8.83.23-2.63,2.61-30.22h-15Z"/><path class="cls-4" d="M60,59.28V74.82H23.74l-.31-3.49-.68-7.88-.36-4.17Zm0,31.45v15.54H43.4l-.29-3.49-.68-7.88-.36-4.17H59.92Z"/></g></g></svg>