<svg xmlns="http://www.w3.org/2000/svg" viewBox="0 0 157.86 147.62"><defs><style>.cls-1{fill:#4d4d4d;}</style></defs><g id="Capa_2" data-name="Capa 2"><g id="Capa_1-2" data-name="Capa 1"><path class="cls-1" d="M50.1,119.32c0,.61-.8,1.14-1.72,1.19s-1.76-.28-1.71-1,.8-1.13,1.72-1.19S50.14,118.63,50.1,119.32Zm-9.8-.73c-.26.62.34,1.27,1.28,1.39a1.67,1.67,0,0,0,2-.73c.23-.61-.33-1.27-1.26-1.48a1.86,1.86,0,0,0-2,.82Zm14.08-1.4c-.94.27-1.61.88-1.56,1.57s.86.94,1.83.67,1.6-.89,1.55-1.49S55.3,117,54.38,117.19ZM82.54.18C38.47,3,2.77,36.88.15,78.76c-2.1,33.48,18.28,60.73,49.32,68.81,4,.44,5.6-2,5.72-4s.67-12.19,1.07-18.53c0,0-22.52,5.93-26.34-7.3,0,0-3.08-8.56-8.14-10.49,0,0-7-4.28.8-4.68,0,0,7.87.1,11.77,7,6.23,11.22,18.1,7.13,22.76,4.85a19.21,19.21,0,0,1,5.72-10.5c-17.64-.75-35.4-2.06-33.58-31.1.52-8.3,3.2-12.62,8.61-18.26C37.16,52.66,35,44.74,40,34c6.76-2.38,21.4,6.77,21.4,6.77A83.13,83.13,0,0,1,81.49,37a75.18,75.18,0,0,1,19.79,1.31s15.92-11.11,22.44-9.54a27.51,27.51,0,0,1-.46,20.45c4.74,5,7.6,9,7.08,17.26-1.83,29.14-20.69,32.64-38.57,35.67,2.78,2.2,5,6.57,4.53,13.66C95.66,126,94.77,138.54,94.62,141c-.12,2,1.19,4.25,5.27,3.3,32.39-12,55.73-42,57.83-75.52C160.34,26.93,126.6-2.6,82.54.18ZM29.12,107.27c-.44.32-.38,1,.12,1.55a1.21,1.21,0,0,0,1.63.2c.44-.33.38-1-.12-1.56A1.2,1.2,0,0,0,29.12,107.27ZM25.84,105c-.25.4,0,.87.66,1.13a1,1,0,0,0,1.37-.3c.25-.4,0-.87-.65-1.13A1.32,1.32,0,0,0,25.84,105Zm9.62,10.1c-.54.42-.4,1.31.29,1.84a1.44,1.44,0,0,0,2,.17,1.33,1.33,0,0,0-.3-1.84A1.43,1.43,0,0,0,35.46,115.14Zm-3.35-4.21a1.24,1.24,0,0,0-.11,1.78c.47.66,1.31.91,1.74.58a1.35,1.35,0,0,0,.12-1.87,1.21,1.21,0,0,0-1.75-.49Z"/></g></g></svg>