<svg xmlns="http://www.w3.org/2000/svg" viewBox="0 0 121.1 174.63"><defs><style>.cls-1{fill:#e44d26;}.cls-2{fill:#f16529;}.cls-3{fill:#ebebeb;}.cls-4{fill:#fff;}</style></defs><g id="Capa_2" data-name="Capa 2"><g id="Capa_1-2" data-name="Capa 1"><path class="cls-1" d="M11,160.61,0,34.32H121.1l-11,126.27-49.59,14Z"/><path class="cls-2" d="M60.55,163.9l40.08-11.35,9.42-107.9H60.55Z"/><path class="cls-3" d="M60.55,91.48H40.49L39.1,75.62H60.55V60.13h-38l.36,4.16L26.62,107H60.55Zm0,40.23-.06,0L43.6,127.07l-1.08-12.35H27.3L29.43,139l31.05,8.8.07,0Z"/><path class="cls-4" d="M11.27,0H19V7.78H26V0h7.7V23.55H26V15.66H19v7.89h-7.7ZM43.86,7.81H37.07V0H58.35V7.81H51.56V23.55h-7.7V7.81ZM61.72,0h8L74.7,8.27,79.64,0h8V23.55H80V11.88l-5.3,8.37h-.13l-5.31-8.37V23.55H61.72V0ZM91.51,0h7.7V15.77h10.84v7.78H91.51Z"/><path class="cls-4" d="M60.5,91.48V107H79.17l-1.76,20.09L60.5,131.72v16.12L91.58,139l.23-2.62,3.56-40.78.37-4.16H60.5Zm0-31.35V75.62H97.12l.3-3.48.7-7.85.36-4.16Z"/></g></g></svg>