<svg xmlns="http://www.w3.org/2000/svg" viewBox="0 0 117.48 128.71"><defs><style>.cls-1{fill:#fcc233;}.cls-2{fill:#fff;}</style></defs><g id="Capa_2" data-name="Capa 2"><g id="Capa_1-2" data-name="Capa 1"><path class="cls-1" d="M0,0H117.48V128.71H0Z"/><path class="cls-2" d="M107.86,98c-.86-5.88-4.35-10.81-14.71-15.41-3.59-1.81-7.6-3.11-8.8-6.09a7.28,7.28,0,0,1-.21-3.77c.77-3.41,4.49-4.48,7.44-3.5a8.5,8.5,0,0,1,4.78,4.86c5.07-3.6,5.06-3.57,8.6-6a24.52,24.52,0,0,0-2.84-4.16c-3.05-3.73-7.2-5.65-13.85-5.5l-3.46.49a15.54,15.54,0,0,0-8.33,5.38c-5.56,6.91-4,19,2.79,24C85.94,93.75,95.73,95,97,100.12c1.22,6.28-4.21,8.31-9.6,7.59-4-.91-6.19-3.12-8.58-7.15l-8.92,5.64c1.07,2.57,2.2,3.73,4,6,8.51,9.46,29.8,9,33.62-5.32A19.14,19.14,0,0,0,107.86,98Zm-44-38.86h-11c0,10.4,0,20.72,0,31.12,0,6.62.31,12.69-.67,14.55-1.61,3.66-5.77,3.21-7.67,2.5-1.93-1-2.92-2.52-4.05-4.62a6.68,6.68,0,0,0-.63-1.1l-8.93,6a18.86,18.86,0,0,0,6.47,8.12c4.19,2.75,9.82,3.6,15.7,2.12a14.17,14.17,0,0,0,8.87-7.61c2.5-5,2-11.17,1.94-17.94.06-11,0-22.07,0-33.14Z"/></g></g></svg>