<svg xmlns="http://www.w3.org/2000/svg" viewBox="0 0 160.14 143.31"><defs><style>.cls-1{fill:#fff;}.cls-2{fill:#77bc1f;}</style></defs><g id="Capa_2" data-name="Capa 2"><g id="Capa_1-2" data-name="Capa 1"><path class="cls-1" d="M143.8,16c13.25,29.06,15.87,42.57,13.64,43.34-2.07.73-8.06-6.82-23.47-30.46C137.19,25.43,140.57,19.47,143.8,16Z"/><ellipse class="cls-1" cx="79.11" cy="73.01" rx="70.13" ry="79.24" transform="translate(-3.49 142.05) rotate(-82.6)"/><path class="cls-2" d="M144.57,8.4a62,62,0,0,1-8.32,13.46C121,8.18,100.39.31,79.09,0,35-.62-.67,31.33,0,70.79c.34,19.68,9.67,38.65,25.84,52.46l3,2.39a88.58,88.58,0,0,0,52,17.66c41.89.59,76.6-28.27,78.94-65.65,1.87-18.29-4.53-41.55-15.25-69.25ZM37.27,123.82A7,7,0,0,1,32,126c-3.78,0-6.91-2.88-7-6.25s3-6.12,6.76-6.06a7.5,7.5,0,0,1,4.34,1.44,5.79,5.79,0,0,1,1.17,8.67Zm108.61-20c-19.41,23.36-61.88,14.79-89,15.54,0,0-4.81.19-9.64.83,0,0,1.8-.66,4.15-1.43,18.94-5.66,27.93-6.69,39.42-11.84,21.63-9.62,42.8-31,46.9-53.55-7.93,21.61-32.77,39.93-55.56,47.2-15.62,5-43.9,9.59-43.9,9.59l-1.16-.56C17.63,100.93,16.4,63.48,51.3,51.89c15.29-5.08,30-2,46.59-5.26,17.66-3.52,38-15.13,46-30.53,9.77,25,21.69,64,1.95,87.74Z"/></g></g></svg>