<svg xmlns="http://www.w3.org/2000/svg" viewBox="0 0 117 125"><defs><style>.cls-1{fill:#007acc;}.cls-2{fill:#fff;}</style></defs><g id="Capa_2" data-name="Capa 2"><g id="Capa_1-2" data-name="Capa 1"><path class="cls-1" d="M0,62.5V0H117V125H0"/><path class="cls-2" d="M25.65,62.72v5.09H40.86v46.25h10.8V67.81H66.87v-5a40.43,40.43,0,0,0-.12-5.15c0-.1-9.27-.13-20.53-.13l-20.48.09v5.13l-.09,0ZM94,57.5A14,14,0,0,1,101.32,62a20,20,0,0,1,2.81,4c0,.19-5.06,3.84-8.13,5.87-.12.1-.59-.43-1-1.25-1.53-2.31-3.08-3.31-5.5-3.5-3.51-.25-5.85,1.72-5.85,5a5.24,5.24,0,0,0,.52,2.38c.79,1.72,2.26,2.75,6.79,4.87,8.36,3.85,12,6.38,14.19,10,2.48,4.07,3,10.44,1.37,15.22-1.87,5.22-6.44,8.75-13,9.91a34.65,34.65,0,0,1-8.92-.09,21.67,21.67,0,0,1-11.9-6.66,22.58,22.58,0,0,1-3-4.81l1.12-.75,4.38-2.72,3.31-2.06.76,1.09A16.41,16.41,0,0,0,83.6,103c3.8,2.1,8.89,1.81,11.4-.62a4.82,4.82,0,0,0,1.55-3.75,5.07,5.07,0,0,0-.87-3.19c-.94-1.38-2.81-2.5-8.08-5-6-2.75-8.63-4.5-11-7.19A17.87,17.87,0,0,1,73.36,77a25.48,25.48,0,0,1-.18-8,14.68,14.68,0,0,1,12-11.87,26.56,26.56,0,0,1,8.89.31L94,57.5Z"/></g></g></svg>