<svg xmlns="http://www.w3.org/2000/svg" xmlns:xlink="http://www.w3.org/1999/xlink" viewBox="0 0 1342.22 660.25"><defs><style>.cls-1{fill:url(#Degradado_sin_nombre_9);}.cls-2{fill:url(#Degradado_sin_nombre_2);}.cls-3{fill:url(#Degradado_sin_nombre_3);}.cls-4{fill:url(#Degradado_sin_nombre_4);}.cls-5,.cls-6{stroke-miterlimit:10;}.cls-5{stroke:url(#Degradado_sin_nombre_5);}.cls-6{stroke:url(#Degradado_sin_nombre_6);}</style><linearGradient id="Degradado_sin_nombre_9" x1="372.3" y1="6648.23" x2="721.1" y2="6648.23" gradientTransform="matrix(1, 0, 0, -1, 0, 7068.52)" gradientUnits="userSpaceOnUse"><stop offset="0.14" stop-color="#68ba84"/><stop offset="0.53" stop-color="#68ba84"/><stop offset="0.87" stop-color="#3d64ad"/></linearGradient><linearGradient id="Degradado_sin_nombre_2" x1="620.42" y1="6851.8" x2="952.02" y2="6851.8" gradientTransform="matrix(1, 0, 0, -1, 0, 7068.52)" gradientUnits="userSpaceOnUse"><stop offset="0.21" stop-color="#5fb897"/><stop offset="0.49" stop-color="#23a7e0"/><stop offset="0.66" stop-color="#1caedf"/><stop offset="0.88" stop-color="#0db8da"/></linearGradient><linearGradient id="Degradado_sin_nombre_3" x1="484.02" y1="6737.27" x2="776.86" y2="7020.06" gradientTransform="matrix(1, 0, 0, -1, 0, 7068.52)" gradientUnits="userSpaceOnUse"><stop offset="0.09" stop-color="#4db79b"/><stop offset="0.49" stop-color="#3db9c2"/><stop offset="0.79" stop-color="#38b9c2"/></linearGradient><linearGradient id="Degradado_sin_nombre_4" x1="618.74" y1="6411.13" x2="892.32" y2="6675.32" gradientTransform="matrix(1, 0, 0, -1, 0, 7068.52)" gradientUnits="userSpaceOnUse"><stop offset="0.09" stop-color="#65ba8a"/><stop offset="0.49" stop-color="#4db79d"/><stop offset="0.79" stop-color="#45b9b2"/></linearGradient><linearGradient id="Degradado_sin_nombre_5" y1="6720.97" x2="332.9" y2="6720.97" gradientTransform="matrix(1, 0, 0, -1, 0, 7068.52)" gradientUnits="userSpaceOnUse"><stop offset="0.12" stop-color="#6ab86a"/><stop offset="0.49" stop-color="#5db887"/><stop offset="0.84" stop-color="#4ab79d"/></linearGradient><linearGradient id="Degradado_sin_nombre_6" x1="5366.34" y1="6553.86" x2="5709.93" y2="6852.54" gradientTransform="translate(7155.73 7068.52) rotate(180) scale(1.11 1)" gradientUnits="userSpaceOnUse"><stop offset="0.11" stop-color="#58bbab"/><stop offset="0.49" stop-color="#28a6df"/><stop offset="0.84" stop-color="#419dd8"/></linearGradient></defs><g id="Capa_2" data-name="Capa 2"><g id="fondo"><path class="cls-1" d="M377,633.79c27.23-33.3,54.08-66.87,81.71-99.65,27.49-33.05,54.86-66.09,82.75-98.75s55.25-65.83,83.65-98.1q42-48.8,85.6-96.3l-1,1.94c1.16-4.65.39-11-1-16.78a109.82,109.82,0,0,0-5.84-17.43l5.32-2.45a96.22,96.22,0,0,1,7.78,17.94c2,6.33,3.63,12.91,2.47,20.79l-.13.9-.78,1c-27,33.43-54.73,66.22-82.75,98.75-27.75,32.79-56.55,64.67-84.82,96.94S493,506.9,464.31,538.91s-57.85,63.64-86.77,95.4Z"/><path class="cls-2" d="M947.44,32.79q-77.24,94.49-156.81,186.78c-26.46,30.85-52.92,61.7-80,92s-54.61,60.28-83,89.46l-4.41-3.88q37.74-47.82,77.95-93.84c26.46-30.85,53.69-61,80.93-91.26q81.12-91,165-179.68Z"/><path class="cls-3" d="M530.45,246.16v6.71q0,69.12,63.94,69.06,60.51,0,60.57-81.84V0h75.1V245.13q-27.82,31-56.81,62.34-37.15,40.27-74.06,78.74c-18.93-4-74.31-17.17-108.17-48A109.58,109.58,0,0,1,474.29,319C463.4,302.18,458,281.91,458,257.9v-8.64Z"/><path class="cls-4" d="M676.23,334.45c35.41.26,70.95.64,106.36.9q47.65,0,74.19,21.82,29,23.63,28.92,69.7c0,21.69-5.32,40.4-15.82,56.28S843.55,510,822.67,516.2l-19.59,4.13L892.7,660.25,835,660.12,750.81,522.65l-79.89-2.32V660.25H621.5V392Zm76.92,145.86c54.73,0,82.23-17.94,82.23-53.95,0-22.59-10.77-37.95-32.17-46-12.71-4.64-33.2-7-61.22-7H671.05V480.31Z"/><path class="cls-5" d="M332.27,135.92,54.71,348.39l277.43,212,.26,73.58L.5,381.82v-68L332.27,61.18Z"/><path class="cls-6" d="M984.79,135.92l298.57,212.47-298.44,212-.26,73.58,357.06-252.1v-68L984.79,61.18Z"/></g></g></svg>